<?xml version="1.0" encoding="iso-8859-1"?>
<svg fill="#ffffff" height="80px" width="80px" version="1.1" id="Layer_1" xmlns="http://www.w3.org/2000/svg" xmlns:xlink="http://www.w3.org/1999/xlink" 
	 viewBox="0 0 512 512" xml:space="preserve">
<g transform="translate(-30,0)"> 
	<g>
		<g>
			<path d="M476.776,100.649h-27.969c-1.874-7.98-5.022-15.473-9.233-22.244l19.791-19.791c6.665-6.665,6.665-17.471,0-24.136
				c-6.664-6.665-17.471-6.665-24.136,0l-19.793,19.789c-6.772-4.211-14.263-7.359-22.245-9.233V17.067
				C393.191,7.641,385.55,0,376.124,0c-9.425,0-17.067,7.641-17.067,17.067v27.97c-7.98,1.874-15.473,5.022-22.244,9.233
				l-19.791-19.791c-6.664-6.665-17.471-6.665-24.136,0c-6.665,6.665-6.665,17.471,0,24.136l19.791,19.791
				c-4.211,6.772-7.359,14.263-9.233,22.244h-27.969c-9.425,0-17.067,7.641-17.067,17.067s7.641,17.065,17.067,17.065h27.969
				c1.874,7.98,5.022,15.473,9.233,22.245l-19.791,19.79c-6.665,6.664-6.665,17.471,0,24.136c6.664,6.665,17.469,6.665,24.136,0
				l19.792-19.79c6.772,4.211,14.263,7.359,22.244,9.233v27.97c0,9.425,7.641,17.067,17.067,17.067s17.067-7.641,17.067-17.067
				v-27.97c7.98-1.874,15.473-5.022,22.245-9.233l19.792,19.792c6.664,6.664,17.471,6.665,24.136,0s6.665-17.471,0-24.136
				l-19.791-19.791c4.211-6.772,7.359-14.263,9.233-22.245h27.969c9.425,0,17.067-7.641,17.067-17.067
				S486.201,100.649,476.776,100.649z M376.124,158.252c-22.353,0-40.537-18.185-40.537-40.537c0-22.352,18.185-40.537,40.537-40.537
				c22.353,0,40.538,18.184,40.538,40.537S398.477,158.252,376.124,158.252z"/>
		</g>
	</g>
	<g>
		<g>
			<path d="M476.773,377.219h-27.969c-1.874-7.98-5.022-15.473-9.233-22.245l19.791-19.791c6.665-6.664,6.665-17.471,0-24.136
				c-6.664-6.664-17.471-6.665-24.136,0l-19.792,19.792c-6.772-4.211-14.263-7.359-22.245-9.233v-27.97
				c0-9.425-7.641-17.067-17.067-17.067s-17.067,7.641-17.067,17.067v27.97c-7.98,1.874-15.471,5.022-22.244,9.233l-19.792-19.791
				c-6.664-6.664-17.471-6.665-24.136,0c-6.665,6.665-6.665,17.471,0,24.136l19.79,19.791c-4.211,6.772-7.359,14.263-9.233,22.245
				h-27.969c-9.425,0-17.067,7.641-17.067,17.067s7.641,17.067,17.067,17.067h27.969c1.874,7.98,5.022,15.473,9.233,22.244
				l-19.79,19.791c-6.665,6.665-6.665,17.471,0,24.136c6.664,6.665,17.471,6.665,24.136,0l19.791-19.791
				c6.772,4.211,14.263,7.359,22.244,9.233v27.968c0,9.425,7.641,17.067,17.067,17.067s17.067-7.641,17.067-17.067v-27.969
				c7.98-1.874,15.473-5.022,22.245-9.233l19.792,19.791c6.664,6.665,17.471,6.666,24.136,0c6.665-6.665,6.665-17.471,0-24.136
				l-19.791-19.79c4.211-6.772,7.359-14.263,9.233-22.244h27.969c9.425,0,17.067-7.641,17.067-17.067
				S486.199,377.219,476.773,377.219z M376.124,434.821c-22.353,0-40.537-18.184-40.537-40.537s18.184-40.537,40.537-40.537
				c22.353,0,40.538,18.185,40.538,40.537C416.662,416.636,398.477,434.821,376.124,434.821z"/>
		</g>
	</g>
	<g>
		<g>
			<path d="M278.901,238.932h-36.773c-2.171-10.907-6.443-21.472-12.82-31.043l25.975-25.975c6.665-6.665,6.665-17.471,0-24.136
				c-6.664-6.665-17.471-6.665-24.136,0l-25.976,25.975c-9.571-6.377-20.136-10.65-31.043-12.82V134.16
				c0-9.425-7.641-17.067-17.067-17.067c-9.425,0-17.067,7.641-17.067,17.067v36.773c-10.907,2.171-21.472,6.443-31.043,12.82
				l-25.975-25.975c-6.664-6.665-17.471-6.665-24.136,0s-6.665,17.471,0,24.136l25.975,25.975
				c-6.377,9.571-10.651,20.136-12.822,31.043H35.224c-9.425,0-17.067,7.641-17.067,17.067s7.641,17.067,17.067,17.067h36.772
				c2.171,10.907,6.443,21.472,12.822,31.043l-25.975,25.975c-6.665,6.665-6.665,17.471,0,24.136c6.664,6.665,17.471,6.666,24.136,0
				l25.975-25.975c9.571,6.377,20.136,10.65,31.043,12.82v36.773c0,9.425,7.641,17.067,17.067,17.067s17.067-7.641,17.067-17.067
				v-36.773c10.907-2.171,21.472-6.443,31.043-12.82l25.975,25.975c6.664,6.665,17.471,6.666,24.136,0
				c6.665-6.664,6.665-17.469,0-24.135l-25.977-25.977c6.377-9.571,10.65-20.135,12.82-31.043h36.773
				c9.425,0,17.067-7.641,17.067-17.067S288.327,238.932,278.901,238.932z M194.303,293.24c-20.532,20.535-53.947,20.535-74.48,0
				c-20.535-20.534-20.535-53.945,0-74.479c20.536-20.535,53.947-20.533,74.48,0C214.836,239.295,214.836,272.706,194.303,293.24z"/>
		</g>
	</g>
</g>
</svg>