<?xml version="1.0" encoding="iso-8859-1"?>
<svg fill="#ffffff" height="80px" width="80px" version="1.1" id="Layer_1" xmlns="http://www.w3.org/2000/svg" xmlns:xlink="http://www.w3.org/1999/xlink" 
	 viewBox="0 0 512.003 512.003" xml:space="preserve">
<g>
	<g>
		<path d="M256,110.09c-80.455,0-145.911,65.456-145.911,145.911S175.545,401.912,256,401.912s145.911-65.455,145.911-145.911
			S336.455,110.09,256,110.09z M256,368.521c-62.043,0-112.52-50.477-112.52-112.52s50.477-112.52,112.52-112.52
			s112.52,50.475,112.52,112.52S318.043,368.521,256,368.521z"/>
	</g>
</g>
<g>
	<g>
		<path d="M295.164,271.554l-22.468-22.468v-60.542c0-9.22-7.475-16.696-16.696-16.696c-9.22,0-16.696,7.475-16.696,16.696v67.457
			c0,4.429,1.759,8.674,4.891,11.806l27.357,27.358c6.519,6.519,17.091,6.52,23.611,0S301.684,278.074,295.164,271.554z"/>
	</g>
</g>
<g>
	<g>
		<path d="M500.387,210.848l-42.157-13.472c-4.316-14.926-10.272-29.295-17.783-42.912l20.287-39.343
			c3.328-6.456,2.103-14.322-3.034-19.457l-41.364-41.365c-5.134-5.136-13.003-6.362-19.456-3.034l-39.345,20.287
			c-13.616-7.511-27.986-13.466-42.911-17.782l-13.472-42.157c-2.209-6.918-8.638-11.612-15.902-11.612h-58.5
			c-7.263,0-13.693,4.695-15.903,11.614l-13.472,42.156c-14.925,4.316-29.294,10.271-42.911,17.782l-39.345-20.287
			c-6.457-3.33-14.323-2.101-19.456,3.034L54.299,95.665c-5.136,5.136-6.362,13.001-3.034,19.457l20.287,39.343
			c-7.511,13.616-13.467,27.986-17.783,42.912l-42.157,13.472C4.696,213.059,0,219.489,0,226.751v58.499
			c0,7.263,4.696,13.693,11.614,15.903l42.156,13.472c4.316,14.926,10.272,29.295,17.783,42.912l-20.287,39.343
			c-3.328,6.456-2.103,14.322,3.034,19.457l41.364,41.365c5.134,5.136,13.004,6.362,19.456,3.034l39.345-20.287
			c13.616,7.511,27.986,13.466,42.911,17.782l13.472,42.156c2.211,6.919,8.641,11.614,15.903,11.614h58.501
			c7.263,0,13.693-4.695,15.903-11.614l13.472-42.156c14.925-4.316,29.294-10.271,42.911-17.782l39.345,20.287
			c6.457,3.329,14.322,2.1,19.456-3.034l41.364-41.365c5.136-5.136,6.362-13.001,3.034-19.457l-20.287-39.343
			c7.511-13.616,13.467-27.986,17.783-42.912l42.156-13.472c6.918-2.211,11.613-8.641,11.613-15.903v-58.499
			C512,219.489,507.304,213.059,500.387,210.848z M478.609,273.058l-39.255,12.544c-5.557,1.776-9.785,6.325-11.151,11.997
			c-4.312,17.924-11.386,34.996-21.026,50.741c-3.046,4.976-3.273,11.183-0.6,16.37l18.892,36.637l-24.123,24.123l-36.637-18.892
			c-5.186-2.675-11.392-2.448-16.368,0.6c-15.745,9.64-32.817,16.715-50.741,21.026c-5.673,1.366-10.222,5.592-11.997,11.151
			l-12.544,39.254h-34.115l-12.545-39.254c-1.776-5.559-6.325-9.786-11.997-11.15c-17.924-4.313-34.995-11.386-50.741-21.026
			c-4.976-3.046-11.182-3.275-16.368-0.6l-36.637,18.892L86.53,401.348l18.892-36.637c2.674-5.187,2.446-11.392-0.6-16.37
			c-9.639-15.745-16.715-32.817-21.027-50.741c-1.366-5.673-5.592-10.222-11.15-11.997l-39.254-12.544v-34.115L72.646,226.4
			c5.557-1.776,9.785-6.325,11.151-11.997c4.312-17.924,11.386-34.996,21.026-50.741c3.046-4.976,3.273-11.183,0.6-16.37
			L86.53,110.654l24.123-24.123l36.637,18.892c5.186,2.674,11.391,2.446,16.368-0.6c15.745-9.64,32.817-16.715,50.741-21.027
			c5.673-1.366,10.222-5.592,11.997-11.15l12.545-39.254h34.115l12.545,39.254c1.776,5.559,6.325,9.786,11.997,11.15
			c17.924,4.313,34.995,11.386,50.741,21.026c4.976,3.046,11.182,3.275,16.368,0.6l36.637-18.892l24.123,24.123l-18.892,36.637
			c-2.674,5.187-2.446,11.392,0.6,16.37c9.639,15.745,16.715,32.817,21.026,50.741c1.366,5.673,5.592,10.222,11.151,11.997
			l39.254,12.544V273.058z"/>
	</g>
</g>
</svg>